<?xml version="1.0" encoding="iso-8859-1"?>
<!-- Generator: Adobe Illustrator 19.0.0, SVG Export Plug-In . SVG Version: 6.00 Build 0)  -->
<svg xmlns="http://www.w3.org/2000/svg" xmlns:xlink="http://www.w3.org/1999/xlink" version="1.1" id="Layer_1" x="0px" y="0px" viewBox="0 0 511.998 511.998" style="enable-background:new 0 0 511.998 511.998;" xml:space="preserve" width="512px" height="512px">
<g>
	<g>
		<path d="M489.917,223.404h-53.224l-36.098-15.852l31.065-31.026l12.574,12.594c3.659,3.659,8.455,5.498,13.25,5.498    c4.795,0,9.592-1.824,13.25-5.484l35.775-35.772c7.318-7.318,7.318-19.182,0-26.5l-51.405-51.405    c-7.317-7.318-19.183-7.318-26.501,0l-35.775,35.775c-7.318,7.318-7.318,19.183,0,26.501l12.329,12.329L363.821,191.4    l-63.956-28.225c-28.891-12.75-62.031-12.829-90.922-0.079L72.117,223.404H18.893C8.544,223.404,0,231.952,0,242.301v55.465    c0,10.349,8.544,19.335,18.893,19.335h17.336V423.04c0,10.349,8.058,18.99,18.407,18.99h399.537    c10.349,0,19.309-8.641,19.309-18.99V317.101h16.436c10.349,0,18.544-8.985,18.544-19.335v-55.465    C508.462,231.952,500.267,223.404,489.917,223.404z M441.856,115.21l24.903,24.903l-9.273,9.273l-24.903-24.903L441.856,115.21z     M224.077,197.346c19.274-8.508,41.382-8.468,60.657,0.039l59.134,26.019H164.943L224.077,197.346z M436.003,404.552H73.708    v-87.451h362.295V404.552z M470.983,279.622H37.479v-18.739h433.504V279.622z" fill="#FFFFFF"/>
	</g>
</g>
<g>
</g>
<g>
</g>
<g>
</g>
<g>
</g>
<g>
</g>
<g>
</g>
<g>
</g>
<g>
</g>
<g>
</g>
<g>
</g>
<g>
</g>
<g>
</g>
<g>
</g>
<g>
</g>
<g>
</g>
</svg>
